<svg width="28" height="28" viewBox="0 0 28 28" fill="none" xmlns="http://www.w3.org/2000/svg">
<path fill-rule="evenodd" clip-rule="evenodd" d="M8.34258 5.29268C7.95206 5.68322 7.95206 6.31638 8.34258 6.7069L13.2923 11.6567C13.6828 12.0472 14.316 12.0472 14.7065 11.6567L19.6562 6.7069C20.0468 6.31638 20.0468 5.68322 19.6562 5.29268L14.7065 0.342942C14.316 -0.0475822 13.6828 -0.0475822 13.2923 0.342942L8.34258 5.29268ZM13.9994 9.53532L10.4639 5.9998L13.9994 2.46426L17.535 5.9998L13.9994 9.53532ZM16.3426 13.2927C15.9521 13.6832 15.9521 14.3164 16.3426 14.7069L21.2924 19.6566C21.6828 20.0472 22.316 20.0472 22.7066 19.6566L27.6562 14.7069C28.0468 14.3164 28.0468 13.6832 27.6562 13.2927L22.7066 8.34294C22.316 7.95242 21.6828 7.95242 21.2924 8.34294L16.3426 13.2927ZM21.9994 17.5353L18.4639 13.9998L21.9994 10.4643L25.535 13.9998L21.9994 17.5353ZM8.34258 22.707C7.95206 22.3164 7.95206 21.6832 8.34258 21.2926L13.2923 16.3429C13.6828 15.9524 14.316 15.9524 14.7065 16.3429L19.6562 21.2926C20.0468 21.6832 20.0468 22.3164 19.6562 22.707L14.7065 27.6566C14.316 28.0472 13.6828 28.0472 13.2923 27.6566L8.34258 22.707ZM10.4639 21.9998L13.9994 25.5354L17.535 21.9998L13.9994 18.4643L10.4639 21.9998ZM0.342576 13.293C-0.0479484 13.6835 -0.0479484 14.3167 0.342576 14.7072L5.29232 19.657C5.68284 20.0474 6.31602 20.0474 6.70654 19.657L11.6563 14.7072C12.0468 14.3167 12.0468 13.6835 11.6563 13.293L6.70654 8.34324C6.31602 7.95272 5.68284 7.95272 5.29232 8.34324L0.342576 13.293ZM5.99944 17.5356L2.4639 14.0001L5.99944 10.4646L9.53496 14.0001L5.99944 17.5356Z" />
</svg>
