<svg width="27" height="27" viewBox="0 0 27 27" fill="none" xmlns="http://www.w3.org/2000/svg">
<g clip-path="url(#clip0_307_48)">
<path d="M14.7671 26.975C15.2868 26.975 15.7081 26.5541 15.7081 26.0349C15.7081 25.5157 15.2868 25.0948 14.7671 25.0948V26.975ZM19.7857 25.0948C19.2661 25.0948 18.8447 25.5157 18.8447 26.0349C18.8447 26.5541 19.2661 26.975 19.7857 26.975V25.0948ZM17.9038 16.9471H21.0404V15.0669H17.9038V16.9471ZM25.118 21.0209C25.118 21.9139 25.1172 22.5272 25.0783 23.0026C25.0404 23.467 24.9708 23.7164 24.8787 23.897L26.5556 24.7507C26.8054 24.2608 26.9066 23.7364 26.954 23.1557C27.0007 22.586 27 21.883 27 21.0209H25.118ZM21.0404 26.975C21.9032 26.975 22.6069 26.9757 23.1772 26.9291C23.7583 26.8817 24.2833 26.7806 24.7736 26.531L23.9192 24.8557C23.7384 24.9477 23.4887 25.0173 23.0239 25.0551C22.5481 25.094 21.9342 25.0948 21.0404 25.0948V26.975ZM24.8787 23.897C24.6682 24.3098 24.3323 24.6454 23.9192 24.8557L24.7736 26.531C25.5408 26.1404 26.1646 25.5172 26.5556 24.7507L24.8787 23.897ZM27 21.0209C27 20.1589 27.0007 19.4558 26.954 18.8861C26.9066 18.3055 26.8054 17.7811 26.5556 17.2912L24.8787 18.1448C24.9708 18.3254 25.0404 18.5749 25.0783 19.0393C25.1172 19.5146 25.118 20.128 25.118 21.0209H27ZM21.0404 16.9471C21.9342 16.9471 22.5481 16.9479 23.0239 16.9867C23.4887 17.0246 23.7384 17.0942 23.9192 17.1862L24.7736 15.5109C24.2833 15.2613 23.7583 15.1602 23.1772 15.1128C22.6069 15.0661 21.9032 15.0669 21.0404 15.0669V16.9471ZM26.5556 17.2912C26.1646 16.5247 25.5408 15.9015 24.7736 15.5109L23.9192 17.1862C24.3323 17.3965 24.6682 17.732 24.8787 18.1448L26.5556 17.2912ZM14.7671 25.0948H5.98462V26.975H14.7671V25.0948ZM21.0404 25.0948H19.7857V26.975H21.0404V25.0948Z" fill="#D9D9D9"/>
<path d="M0.966064 8.4861V5.97914C0.966064 4.2241 0.966064 3.34657 1.30793 2.67624C1.60866 2.0866 2.0885 1.60721 2.67868 1.30676C3.34964 0.96521 4.22798 0.96521 5.98465 0.96521C7.74132 0.96521 8.61966 0.96521 9.29062 1.30676C9.88081 1.60721 10.3606 2.0866 10.6614 2.67624C11.0032 3.34657 11.0032 4.2241 11.0032 5.97914V21.0209C11.0032 22.7759 11.0032 23.6535 10.6614 24.3238C10.3606 24.9135 9.88081 25.3928 9.29062 25.6933C8.61966 26.0348 7.74132 26.0348 5.98465 26.0348C4.22798 26.0348 3.34964 26.0348 2.67868 25.6933C2.0885 25.3928 1.60866 24.9135 1.30793 24.3238C0.966064 23.6535 0.966064 22.7759 0.966064 21.0209V13.5" stroke="white" stroke-width="2" stroke-linecap="round"/>
<path d="M7.23927 22.2744H4.72998" stroke="white" stroke-width="2" stroke-linecap="round"/>
<path d="M15.1608 4.63664L12.4732 7.32171C11.7479 8.0463 11.3853 8.40859 11.1943 8.86931C11.0033 9.33001 11.0033 9.84237 11.0033 10.8671V22.9718L22.2581 11.7275C23.5003 10.4864 24.1214 9.8659 24.3541 9.15039C24.5588 8.521 24.5588 7.84303 24.3541 7.21366C24.1214 6.49814 23.5003 5.87764 22.2581 4.63664C21.016 3.39564 20.395 2.77514 19.6787 2.54266C19.0487 2.33816 18.3702 2.33816 17.7401 2.54266C17.024 2.77514 16.4029 3.39564 15.1608 4.63664Z" stroke="white" stroke-width="2"/>
</g>
<defs>
<clipPath id="clip0_307_48">
<rect width="27" height="27" fill="white"/>
</clipPath>
</defs>
</svg>
